<svg xmlns="http://www.w3.org/2000/svg" width="250" height="160" fill="#233437" viewBox="0 0 447.82 110.63">
  <path d="M376.97 82.4c-2.78 0-4.92 0-6.23-2.05-3-8.09-9-24.58-11.55-31.31l-2-5.56c-3.51-9.65-11.59-15.18-22.36-15.18-6.39 0-13 2.76-17.89 6.27l4.3 3.43c2.75-2.22 6.78-4.46 10.52-4.46 8.73 0 13.41 4.07 16.47 12.49l2.15 5.91a27.81 27.81 0 0 0-14.73-4.09c-10.51 0-21.15 6.89-21.15 20.06s8.82 19.92 25.47 19.92c11 0 17.42-4.22 20.75-7.4l2 5.5h16.27l-1.35-3.53Zm-37.94 2.15c-9.42 0-15.15-6.68-15.15-16.25 0-6.19 1-16.56 13.49-16.56a24 24 0 0 1 14.71 5l6.75 18.54c-2.44 6.33-11.45 9.27-19.8 9.27ZM244.36 82.4c-2.78 0-4.92 0-6.23-2.05-3-8.09-9-24.58-11.55-31.31l-2-5.56c-3.51-9.65-11.61-15.18-22.36-15.18-6.38 0-12.19 2.76-17 6.27l4.27 3.43c2.76-2.22 6.78-4.46 10.52-4.46 8.73 0 12.55 4.07 15.61 12.49l2.16 5.91a27.87 27.87 0 0 0-14.74-4.09c-10.51 0-20.29 6.89-20.29 20.06s8 19.94 24.65 19.94c11 0 17.42-4.22 20.76-7.4l2 5.5h16.22l-1.35-3.53Zm-37.94 2.15c-9.42 0-14.29-6.68-14.29-16.25 0-6.19.14-16.56 12.64-16.56a24 24 0 0 1 14.7 5l6.75 18.54c-2.44 6.33-11.45 9.27-19.8 9.27ZM142.22 82.4c-2.77 0-4.91 0-6.22-2.05-3-8.09-9-24.58-11.55-31.31l-2-5.56c-3.48-9.65-11.59-15.18-22.36-15.18-6.39 0-13.06 2.76-17.9 6.27L86.46 38c2.76-2.22 6.79-4.46 10.53-4.46 8.72 0 13.41 4.07 16.47 12.49l2.15 5.91a27.87 27.87 0 0 0-14.74-4.09c-10.5 0-21.14 6.89-21.14 20.06s8.82 19.94 25.51 19.94c11 0 17.42-4.22 20.75-7.4l2 5.5h16.27l-1.35-3.53Zm-37.93 2.15c-9.43 0-15.15-6.68-15.15-16.25 0-6.19 1-16.56 13.49-16.56a24 24 0 0 1 14.7 5l6.75 18.54c-2.44 6.33-11.45 9.27-19.79 9.27ZM291.17 79.76l-16.63-49.74h-11.02l10.47 29.56-9.28 22.25-17.32-51.81h-11.02L256 85.44l.17.47h10.13l9.3-21.79 7.72 21.79h10.13l19.31-55.89h-3.99l-17.6 49.74zM429.97 65.06V30h-9.3l.86 33.37v4.79c0 7.19-6.17 14-13.28 15.14a44.07 44.07 0 0 1-6.7 0c-7.15-.73-13.27-8-13.27-15.14v-4.79l.86-33.37h-9.26v42.61c0 6.46 5.27 17.26 22.54 17.26h5c4.92 0 10.59-2.74 13.94-5.5-.46 4.35-.9 8.77-2.23 11.72-1.85 4.12-6.07 9-15.77 9-9.44 0-19.31-8.12-20.25-9.54l-.23-.34-3 .27.44.91c.07.13 7.56 13.32 23.54 14.18 11.88.63 19.06-4.15 23-14.23a17.38 17.38 0 0 0 .68-2.34c1.51-5.93 2.07-13.94 2.27-20a12.77 12.77 0 0 0 .08-1.38v-1.89c.08-3.43.08-5.67.08-5.67ZM157.89 39.61v-9.83h-10v56.13h10.91V44.08a15.29 15.29 0 0 1 12.57-7 12.13 12.13 0 0 1 6.92 2v-9.37a8.79 8.79 0 0 0-4.95-1c-5.13.01-13.05 7.48-15.45 10.9ZM41.57 77.7c-19.74 0-32.6-20.79-32.6-39.44 0-10.72 2.45-19.56 8.72-25.56a30.91 30.91 0 0 1 21.56-8.17c8.16 0 14.44 5.11 18.26 9.41a44.16 44.16 0 0 1 6.46 9.53l.34.71 9.4-6c-.55-1.19-4-5-5.05-6.16C62.57 5.71 55.48 0 39.48 0 24.33 0 15.04 7.48 9.91 13.74a45 45 0 0 0-9.94 28.1c0 6.4 1.1 18.68 8.52 29.06 6.92 9.67 17.58 14.79 30.85 14.79 19.38 0 29.79-13.29 34.66-22.41l-4.27-1.81C61.97 72.37 52.72 77.7 41.57 77.7ZM433.28 37.61a7.27 7.27 0 1 1 7.28 7.26 7.27 7.27 0 0 1-7.28-7.26Zm13 0a5.75 5.75 0 1 0-5.75 5.75 5.77 5.77 0 0 0 5.75-5.75Zm-6.07 1h-.73v2.7h-1.41V34h2.74a2.3 2.3 0 0 1 2.47 2.11.92.92 0 0 1 0 .16 2.34 2.34 0 0 1-1.6 2.25l1.74 2.84h-1.45Zm.43-1.41c.63 0 1.12-.33 1.12-.92a.93.93 0 0 0-.85-1h-1.43v1.88Z"/>
</svg>